<svg xmlns="http://www.w3.org/2000/svg" xmlns:xlink="http://www.w3.org/1999/xlink" id="Layer_3" x="0px" y="0px" width="64px" height="64px" viewBox="0 0 64 64" style="enable-background:new 0 0 64 64;" xml:space="preserve">
<style type="text/css">
	.st0{fill:#4CCEAD;}
	.st1{fill:#2854A1;}
	.st2{fill:#F86464;}
	.st3{fill:#263357;}
</style>
<g>
	<path class="st0" d="M18.5,26.6l0.2-0.4c0.1,0.4,0.2,0.8,0.3,1.2c0.2-0.3,0.3-0.6,0.4-0.9c0,0,0-0.1,0-0.1l0.1-0.1   c-0.1-0.4-0.1-0.8,0-1.2l0-0.1l2-8.2h-5.8l-3.5,8c-0.4,2,0.8,3.9,2.7,4.4c0.7,0.2,1.3,0.1,1.9-0.1C17.7,28.5,18.3,27.6,18.5,26.6z"></path>
	<path class="st0" d="M54.2,24.5l-3.4-7.8h-5.2l2,8.2c0,0.3,0,0.6,0,0.8c0,0,0,0.1,0.1,0.1l0.2,0.4c0,0,0,0.1,0,0.1   c0.5,2,2.5,3.2,4.5,2.7c0.1,0,0.1,0,0.2-0.1C53.9,28.1,54.6,26.3,54.2,24.5z"></path>
	<path class="st1" d="M28.9,16.8h-5.8L21,25.2c0,0.2,0,0.4,0,0.6c0.1,0.1,0.1,0.3,0.1,0.5c0.3,1.6,1.6,2.8,3.2,3   c0.6,0.1,1.1,0,1.6-0.2c0.9-0.7,1.5-1.7,1.7-3l0.1-0.8l0.1-0.4l-0.1,0.8c0,0.6,0.1,1.1,0.3,1.7c0.2-0.4,0.4-0.8,0.4-1.3l0-0.2   c0-0.1,0-0.1,0-0.2L28.9,16.8z"></path>
	<path class="st1" d="M44,16.8h-5.9l0.6,8.7l0,0l0.1,0.6c0.1,1,0.6,1.9,1.4,2.5c0.8,0.6,1.7,0.9,2.7,0.8c0.3,0,0.6-0.1,0.8-0.2   c0.9-0.7,1.5-1.7,1.6-2.9l0.2,0.4c0.1,0.2,0.1,0.4,0.2,0.7c0.2-0.4,0.3-0.8,0.4-1.2c0-0.3,0.1-0.6,0-0.9L44,16.8z"></path>
	<path class="st0" d="M30.4,16.8L29.8,25l0.1,0l-0.1,0.4l-0.1,0.4c0.1,1.9,1.7,3.5,3.7,3.5c0.5,0,0.9-0.1,1.3-0.2   c1-0.8,1.7-2.1,1.7-3.5v-0.1l0.1,0.6c0,0.4,0.1,0.8,0.3,1.1c0.2-0.5,0.4-1,0.4-1.6v-0.3l-0.6-8.6H30.4z"></path>
	<path class="st2" d="M29,28.3c-0.1,0.1-0.2,0.3-0.3,0.4c0.4,0.5,1,0.9,1.6,1.1C29.8,29.4,29.4,28.9,29,28.3z"></path>
	<path class="st2" d="M39.3,29.7c-0.5-0.4-0.9-0.9-1.3-1.4c-0.1,0.1-0.2,0.3-0.3,0.4C38.2,29.1,38.7,29.5,39.3,29.7   C39.3,29.7,39.3,29.7,39.3,29.7z"></path>
	<path class="st2" d="M47,28.1c-0.1,0.2-0.2,0.3-0.3,0.5c0.5,0.5,1.2,0.9,1.9,1.2C47.9,29.4,47.3,28.8,47,28.1z"></path>
	<path class="st2" d="M21.6,29.8c-0.5-0.4-1-0.9-1.4-1.5c-0.1,0.2-0.2,0.3-0.3,0.4C20.4,29.2,21,29.5,21.6,29.8z"></path>
	<rect x="16.4" y="42" class="st1" width="10.4" height="3"></rect>
	<polygon class="st0" points="37.5,39.1 37.9,39.8 46,39.8 43.9,35.7  "></polygon>
	<path class="st0" d="M14.9,16h34.2c0.8,0,1.5-0.7,1.5-1.5c0-0.8-0.7-1.5-1.5-1.5H14.9c-0.8,0-1.5,0.7-1.5,1.5   C13.4,15.3,14.1,16,14.9,16z"></path>
	<g>
		<circle class="st3" cx="51.3" cy="53.2" r="0.8"></circle>
		<path class="st3" d="M49.1,52.4H11.2c-0.4,0-0.7,0.3-0.7,0.7s0.3,0.7,0.7,0.7h37.9c0.4,0,0.7-0.3,0.7-0.7S49.5,52.4,49.1,52.4z"></path>
		<path class="st3" d="M59.5,49.4h-6.7V32.4c0-0.4-0.3-0.7-0.7-0.7s-0.7,0.3-0.7,0.7v17.1h-3c-0.4,0-0.7,0.3-0.7,0.7    s0.3,0.7,0.7,0.7h11.1c0.4,0,0.7-0.3,0.7-0.7S59.9,49.4,59.5,49.4z"></path>
		<path class="st3" d="M35,50.2c0-0.4-0.3-0.7-0.7-0.7H12.7V32.4c0-0.4-0.3-0.7-0.7-0.7s-0.7,0.3-0.7,0.7v17.1H4.5    c-0.4,0-0.7,0.3-0.7,0.7s0.3,0.7,0.7,0.7h29.7C34.7,50.9,35,50.6,35,50.2z"></path>
		<path class="st3" d="M26.8,33.8H16.4c-0.4,0-0.7,0.3-0.7,0.7V45c0,0.4,0.3,0.7,0.7,0.7h10.4c0.4,0,0.7-0.3,0.7-0.7V34.6    C27.6,34.2,27.2,33.8,26.8,33.8z M26.1,44.2h-8.9v-8.9h8.9V44.2z"></path>
		<circle class="st3" cx="44.6" cy="49.4" r="1.5"></circle>
		<circle class="st3" cx="38" cy="49.4" r="1.5"></circle>
		<path class="st3" d="M48.3,41.3c0.4,0,0.7-0.3,0.7-0.7c0-0.4-0.3-0.7-0.7-0.7H35l-0.8-2.5c-0.1-0.3-0.4-0.5-0.7-0.5h-3.3    c-0.4,0-0.7,0.3-0.7,0.7s0.3,0.7,0.7,0.7H33l2.7,8.4c0.1,0.3,0.4,0.5,0.7,0.5h10.3c0.4,0,0.7-0.3,0.7-0.7s-0.3-0.7-0.7-0.7H37    l-0.5-1.5h11c0.4,0,0.7-0.3,0.7-0.7s-0.3-0.7-0.7-0.7H36c0,0,0,0,0,0l-0.5-1.5H48.3z"></path>
		<path class="st3" d="M13,30.6c0.4,0.1,0.8,0.1,1.2,0.1c1.8,0,3.5-1,4.5-2.5c0.8,1.4,2.2,2.3,3.8,2.5c0.2,0,0.4,0,0.6,0    c1.1,0,2.3-0.4,3.2-1.1c0.5-0.4,0.9-0.9,1.3-1.4c0.9,1.6,2.6,2.6,4.5,2.6c1.9,0,3.6-1.1,4.5-2.6c0.3,0.5,0.7,1,1.3,1.4    c0.9,0.7,2,1.1,3.2,1.1c0.2,0,0.4,0,0.6,0c1.6-0.2,3-1.2,3.8-2.5c1.1,1.9,3.4,2.9,5.7,2.4c2.8-0.7,4.5-3.5,3.8-6.3    c0,0,0-0.1,0-0.1l-3.8-8.5c0,0,0-0.1-0.1-0.1c0.2-0.3,0.3-0.7,0.3-1.1c0-1.2-1-2.2-2.2-2.2H14.9c-1.2,0-2.2,1-2.2,2.2    c0,0.4,0.1,0.8,0.3,1.1c0,0,0,0.1-0.1,0.1l-3.8,8.5c0,0,0,0.1,0,0.1C8.5,27.1,10.2,29.9,13,30.6z M17.8,26.4    c-0.5,2-2.5,3.2-4.5,2.7c-1.4-0.3-2.4-1.4-2.7-2.8L17.8,26.4C17.8,26.4,17.8,26.4,17.8,26.4z M28.3,24.9l0.5-8.2h6.3l0.5,8.2H28.3    z M37.2,24.9l-0.5-8.2h5.9l2,8.2H37.2z M27.4,16.8l-0.5,8.2h-7.4l2-8.2H27.4z M25.3,28.5c-0.8,0.6-1.7,0.9-2.7,0.8    c-1.6-0.2-2.8-1.3-3.1-2.9h7.2C26.5,27.2,26,28,25.3,28.5z M32,29.4c-1.8,0-3.3-1.3-3.6-3h7.3C35.3,28.1,33.8,29.4,32,29.4z     M41.4,29.3c-1,0.1-1.9-0.2-2.7-0.8c-0.7-0.5-1.1-1.3-1.3-2.1h7.2C44.2,27.9,43,29.1,41.4,29.3z M50.7,29.2c-2,0.5-4-0.7-4.5-2.7    c0,0,0,0,0,0h7.2C53.1,27.7,52.1,28.8,50.7,29.2z M53.5,24.7c0,0.1,0,0.1,0,0.2h-7.4l-2-8.2h5.8h0.1L53.5,24.7z M14.9,13.8h34.2    c0.4,0,0.8,0.3,0.8,0.8c0,0.4-0.3,0.7-0.7,0.7H14.8c-0.4,0-0.7-0.4-0.7-0.7C14.2,14.1,14.5,13.8,14.9,13.8z M14.1,16.8L14.1,16.8    H20l-2,8.2l0,0h-7.4c0-0.1,0-0.1,0-0.2L14.1,16.8z"></path>
	</g>
</g>
</svg>