<svg xmlns="http://www.w3.org/2000/svg" xmlns:xlink="http://www.w3.org/1999/xlink" id="Layer_3" x="0px" y="0px" width="64px" height="64px" viewBox="0 0 64 64" style="enable-background:new 0 0 64 64;" xml:space="preserve">
<style type="text/css">
	.st0{fill:#2854A1;}
	.st1{fill:#4CCEAD;}
	.st2{fill:#263357;}
</style>
<g>
	<path class="st0" d="M44,24.6v-1.1c0-1.5-1.2-2.6-2.6-2.6h-1.2v6.4h1.2C42.8,27.3,44,26.1,44,24.6z"></path>
	<path class="st0" d="M26.3,27.3h1.2v-6.4h-1.2c-1.5,0-2.6,1.2-2.6,2.6v1.1C23.6,26.1,24.8,27.3,26.3,27.3z"></path>
	<path class="st1" d="M48.8,54.6c0.1-0.2,0.2-0.4,0.2-0.7V40.1c0-0.8-0.6-1.4-1.4-1.4H20.6c-0.8,0-1.4,0.6-1.4,1.4v13.9   c0,0.2,0.1,0.5,0.2,0.7c-2,0-3.4,0-3.4,0v0.3c0,1.2,1,2.2,2.2,2.2H50c1.2,0,2.2-1,2.2-2.2v-0.3C52.2,54.6,50.8,54.6,48.8,54.6z    M34.1,45.7c0.9,0,1.6,0.7,1.6,1.6s-0.7,1.6-1.6,1.6s-1.6-0.7-1.6-1.6S33.2,45.7,34.1,45.7z"></path>
	<g>
		<path class="st2" d="M31.1,24.8c-0.4,0-0.6,0.3-0.6,0.6c0,0.4,0.3,0.6,0.6,0.6h1.5c0.4,0,0.6-0.3,0.6-0.6c0-0.4-0.3-0.6-0.6-0.6    H31.1z"></path>
		<path class="st2" d="M37.2,26c0.4,0,0.6-0.3,0.6-0.6c0-0.4-0.3-0.6-0.6-0.6h-1.5c-0.4,0-0.6,0.3-0.6,0.6c0,0.4,0.3,0.6,0.6,0.6    H37.2z"></path>
		<path class="st2" d="M57.3,56.5h-4.9c0.3-0.5,0.5-1,0.5-1.6v-0.3c0-0.3-0.3-0.6-0.6-0.6h-2.6V40.1c0-1.1-0.9-2-2-2h-2    c-1.5-2.4-4-4.2-7-4.7c0,0,0,0,0,0v0c-0.1,0-0.1,0-0.2,0c0,0-0.1,0-0.1,0c-0.1,0-0.3,0.1-0.4,0.2c-1.1,1-2.6,1.6-4.1,1.6    c-1.5,0-2.9-0.6-4.1-1.6c0,0,0,0,0,0c0,0,0,0-0.1,0c0,0,0,0,0,0c0,0,0,0-0.1,0c0,0,0,0,0,0c0,0-0.1,0-0.1,0c0,0,0,0,0,0    c0,0,0,0-0.1,0c0,0,0,0-0.1,0c0,0,0,0,0,0l-0.1,0c-3,0.5-5.5,2.3-7,4.7h-1.5c-1.1,0-2,0.9-2,2V54H16c-0.3,0-0.6,0.3-0.6,0.6v0.3    c0,0.6,0.2,1.1,0.5,1.6H6.5c-0.4,0-0.6,0.3-0.6,0.6s0.3,0.6,0.6,0.6h11.8H50h7.3c0.4,0,0.6-0.3,0.6-0.6S57.7,56.5,57.3,56.5z     M29.1,34.6c1.3,1.1,3,1.7,4.7,1.7c1.7,0,3.4-0.6,4.7-1.7c2.3,0.4,4.3,1.7,5.6,3.5H23.6C24.9,36.3,26.9,35,29.1,34.6z M19.8,40.1    c0-0.4,0.3-0.7,0.7-0.7h0.8h1.4h2.8h1.3h14.4h1.3h2.4h1.4h1.4c0.4,0,0.7,0.3,0.7,0.7V54c0,0.4-0.3,0.6-0.7,0.6H20.5    c-0.4,0-0.6-0.3-0.7-0.6V40.1z M18.2,56.5c-0.8,0-1.4-0.5-1.6-1.3h2.4c0.3,0.4,0.9,0.6,1.4,0.6h27.2c0.6,0,1.1-0.2,1.4-0.6h2.4    c-0.1,0.7-0.8,1.3-1.6,1.3H18.2z"></path>
		<path class="st2" d="M23,24.6c0,1.3,0.8,2.5,1.9,3c0.3,2.3,2.2,4.1,4.6,4.1h1.7h0.1H32c0.7,0,1.2-0.5,1.2-1.2v-0.2    c0-0.7-0.5-1.2-1.2-1.2h-0.8c-0.7,0-1.2,0.5-1.2,1.2v0.1h-0.5c-1.6,0-2.9-1.1-3.2-2.5h1c0.1,0.4,0.3,0.8,0.4,1.2    c0.1,0.2,0.3,0.4,0.6,0.4c0.1,0,0.2,0,0.3-0.1c0.3-0.1,0.5-0.5,0.3-0.8c-0.4-0.8-0.6-1.7-0.8-2.6c0,0,0,0,0,0c0,0,0,0,0,0    c0,0,0,0,0,0c0,0,0-0.1,0-0.1c0,0,0-0.1,0-0.1v-2.9c0,0,0.1,0,0.1-0.1c0.4-0.4,0.8-0.7,1.3-0.9c0.2-0.1,0.4-0.1,0.7-0.1    c0.7,0,1.4,0.3,2.1,0.7c0.2,0.1,0.5,0.2,0.8,0.3c0.9,0.4,1.8,0.5,2.9,0.5c0.2,0,0.3,0,0.5,0c0,0,0.1,0,0.1,0c0.1,0,0.2,0,0.2,0    c0.9-0.1,1.8-0.3,2.7-0.6c0,0,0.1,0,0.1,0.1v3.9c-0.7,3.4-3,5.7-5.6,5.7c-0.4,0-0.8-0.1-1.2-0.2c-0.3-0.1-0.7,0.1-0.8,0.4    c-0.1,0.3,0.1,0.7,0.4,0.8c0.5,0.1,1,0.2,1.5,0.2c2.9,0,5.5-2.3,6.6-5.7h0.8c1.8,0,3.3-1.5,3.3-3.3v-1.1c0-1.3-0.8-2.5-1.9-3v-2.2    c0-4.2-3.6-7.6-8-7.6h-1.8c-4.4,0-8,3.4-8,7.6v2.2c-1.1,0.5-1.9,1.7-1.9,3V24.6z M39.4,21.3C39.4,21.3,39.4,21.3,39.4,21.3    c-1,0.4-1.9,0.6-2.8,0.7l-2.2-2.2c-0.2-0.2-0.7-0.2-0.9,0c-0.2,0.2-0.2,0.7,0,0.9l1.3,1.3c-0.5-0.1-1-0.2-1.4-0.4    c-0.2-0.1-0.4-0.2-0.7-0.3c-0.8-0.4-1.7-0.8-2.7-0.8c-0.4,0-0.7,0.1-1.1,0.2c-0.3,0.1-0.6,0.2-0.9,0.4c0-0.5,0-1,0.2-1.5    c0.1-0.4,0.5-1.6,1.5-2.5c0.9-0.8,2.2-1.3,3.9-1.3c3,0,4.7,1.3,5.5,4C39.4,20.3,39.5,20.8,39.4,21.3z M43.3,23.5v1.1    c0,1.1-0.9,2-2,2h-0.5h0v-0.2v-0.7v-1.4v-1.1v-1.3v-0.3h0.5c0,0,0.1,0,0.1,0c0.5,0,0.9,0.2,1.2,0.5C43.1,22.4,43.3,22.9,43.3,23.5    z M26.2,18.3c0-3.5,3-6.3,6.7-6.3h1.8c3.7,0,6.7,2.8,6.7,6.3v1.9c0,0-0.1,0-0.1,0h-0.7c0-0.3-0.1-0.6-0.2-0.8    c-1-3.3-3.2-4.9-6.7-4.9c-2,0-3.6,0.5-4.8,1.6c-1.3,1.1-1.7,2.5-1.9,3.1c-0.1,0.4-0.2,0.7-0.2,1h-0.6c0,0-0.1,0-0.1,0V18.3z     M24.3,23.5c0-0.6,0.3-1.1,0.7-1.5c0.3-0.3,0.8-0.5,1.2-0.5c0,0,0.1,0,0.1,0h0.5v0.3v4.2v0.5h-0.5c0,0-0.1,0-0.1,0    c-0.5,0-0.9-0.2-1.3-0.5c-0.4-0.4-0.6-0.9-0.6-1.5V23.5z"></path>
		<path class="st2" d="M20.5,35.5c0.4,0,0.6-0.3,0.6-0.6c0-0.4-0.3-0.6-0.6-0.6c-3.2,0-5.8,2.6-5.8,5.8v5c0,0.4,0.3,0.6,0.6,0.6    c0.4,0,0.6-0.3,0.6-0.6v-5C16,37.6,18,35.5,20.5,35.5z"></path>
		<path class="st2" d="M52.8,52.7c0.4,0,0.6-0.3,0.6-0.6v-7.6c0-0.4-0.3-0.6-0.6-0.6c-0.4,0-0.6,0.3-0.6,0.6V52    C52.2,52.4,52.5,52.7,52.8,52.7z"></path>
		<circle class="st2" cx="52.9" cy="42.5" r="0.7"></circle>
		<circle class="st2" cx="45.9" cy="20.3" r="0.7"></circle>
		<circle class="st2" cx="15.4" cy="47" r="0.7"></circle>
		<path class="st2" d="M45.2,18.3c0,0.4,0.3,0.6,0.6,0.6s0.6-0.3,0.6-0.6c0-3-1.2-5.9-3.5-8c-0.3-0.2-0.7-0.2-0.9,0    c-0.2,0.3-0.2,0.7,0,0.9C44.2,13.1,45.2,15.6,45.2,18.3z"></path>
		<path class="st2" d="M14.8,21.7c0.8,0,1.6-0.1,2.3-0.2c0.5,0.5,1.1,0.9,1.7,1.3c0.7,0.4,1.5,0.6,2.2,0.7c0,0,0.1,0,0.1,0    c0.2,0,0.4-0.1,0.5-0.3c0.1-0.2,0.1-0.5,0-0.7c-0.3-0.5-0.5-1.1-0.6-1.7c-0.1-0.3-0.1-0.7,0-1c1.7-1.3,2.6-3,2.6-4.8    c0-3.7-4-6.8-8.8-6.8S6,11.2,6,14.9S9.9,21.7,14.8,21.7z M14.8,9.5c4.2,0,7.5,2.5,7.5,5.5c0,1.5-0.8,2.9-2.3,3.9    c-0.1,0.1-0.2,0.3-0.3,0.4c-0.1,0.6-0.1,1.1,0,1.7c0,0.3,0.1,0.6,0.2,0.9c-0.2-0.1-0.4-0.2-0.6-0.3c-0.6-0.3-1.2-0.7-1.6-1.3    c-0.1-0.1-0.3-0.2-0.5-0.2c0,0-0.1,0-0.1,0c-0.8,0.2-1.6,0.3-2.4,0.3c-4.2,0-7.5-2.5-7.5-5.5S10.6,9.5,14.8,9.5z"></path>
		<circle class="st2" cx="17.9" cy="15.2" r="0.8"></circle>
		<circle class="st2" cx="14.7" cy="15.2" r="0.8"></circle>
		<circle class="st2" cx="11.7" cy="15.2" r="0.8"></circle>
	</g>
</g>
</svg>