<svg xmlns="http://www.w3.org/2000/svg" xmlns:xlink="http://www.w3.org/1999/xlink" id="Layer_3" x="0px" y="0px" width="64px" height="64px" viewBox="0 0 64 64" style="enable-background:new 0 0 64 64;" xml:space="preserve">
<style type="text/css">
	.st0{fill:#2854A1;}
	.st1{fill:#263357;}
	.st2{fill-rule:evenodd;clip-rule:evenodd;fill:#4CCEAD;}
</style>
<g>
	<path class="st0" d="M34.7,56.9v-1.3l0.8-1.3l-0.8-1.3l-0.8-1.7l0.8-0.8l0.8-2.1l-0.8-0.8v-2.1l1.7-2.5v-1.7h-4.2l-0.4,2.5   l-1.7,2.2v11.7c0,0.7,0.2,1.3,0.6,1.9c0.5,0.7,1.3,1.2,2.2,1.4c0.2,0,0.4,0.1,0.6,0.1c0.9,0,1.7-0.3,2.3-0.9l0,0   c0.2-0.2,0.4-0.4,0.5-0.7c0.1-0.2,0.2-0.4,0.3-0.6l-1-0.5L34.7,56.9z"></path>
	<rect x="30.1" y="31.8" class="st0" width="6.7" height="4.2"></rect>
	<g>
		<circle class="st1" cx="18.4" cy="3.7" r="0.9"></circle>
		<circle class="st1" cx="47.9" cy="32.2" r="0.9"></circle>
		<path class="st1" d="M33.5,2.4c-4.1,0-8,1.6-11,4.5c-6,6-6,15.9,0,21.9c1.9,1.9,4.2,3.3,6.8,4v1.5c-0.2,0-0.4-0.1-0.6-0.2    c-0.1,0-0.2,0-0.4,0c-1.7,0.3-3.4,0.8-4.9,1.4c-1.8,0.7-3.4,1.3-5,2.4c0-0.4-0.4-0.8-0.8-0.8H9.8c-0.5,0-0.8,0.4-0.8,0.8    c0,0.5,0.4,0.8,0.8,0.8h6.9v20.1h-1.8c-0.5,0-0.8,0.4-0.8,0.8c0,0.5,0.4,0.8,0.8,0.8h2.7c0.5,0,0.8-0.4,0.8-0.8v-0.5    c0.1,0,0.2,0.1,0.2,0.1c0.6,0.3,1.2,0.5,1.8,0.8c1.2,0.5,2.4,0.8,3.6,1c0.8,0.1,3.5,0.2,4.5,0.2h1.3c0.5,0,0.9,0,1.4-0.1    c0,0,0,0,0,0h0c0.6,0.4,1.4,0.7,2.3,0.7c1.6,0,3-0.9,3.7-2.2c0.1,0,0.1,0,0.2,0h2.4c1.8,0,3.4-1.5,3.4-3.4c0-0.6-0.2-1.3-0.5-1.8    c1.5-0.4,2.6-1.7,2.6-3.3c0-1-0.4-1.8-1.1-2.4c0.8-0.6,1.2-1.5,1.2-2.6s-0.5-2-1.2-2.6c0.6-0.6,1.1-1.5,1.1-2.4    c0-1.8-1.5-3.4-3.4-3.4h-1.2c0.3-0.9,0.4-1.9-0.1-2.6c-0.6-0.8-1.6-0.9-2.9-0.7v-1.8c2.5-0.7,4.9-2.1,6.8-4c6-6,6-15.9,0-21.9    C41.5,4.1,37.6,2.4,33.5,2.4z M33.5,60.4c-0.7,0-1.3-0.3-1.8-0.7c-0.5-0.5-0.8-1.1-0.8-1.8V46.7c0.1-0.1,0.2-0.3,0.3-0.4    c0.8-1.2,1.4-2.6,1.7-4.1c0.6,0.1,1.4,0.1,2.3,0.1c0.1,0.4,0.3,0.8,0.5,1.1c-1.3,0.5-2.2,1.7-2.2,3.2c0,1,0.4,1.8,1.1,2.4    c-0.8,0.6-1.2,1.5-1.2,2.6c0,1.2,0.6,2.2,1.5,2.8c-0.5,0.6-0.8,1.4-0.8,2.2c0,0.9,0.4,1.7,1,2.3c0.2,0.2,0.4,0.3,0.6,0.5    C35.1,60,34.3,60.4,33.5,60.4z M42,44.8c0.9,0,1.7,0.8,1.7,1.7c0,0.9-0.8,1.7-1.7,1.7h-0.2h-4.2h-0.8c-0.3,0-0.6-0.1-0.8-0.2    c-0.5-0.3-0.8-0.8-0.8-1.5c0-0.6,0.3-1.2,0.8-1.4c0.2-0.1,0.5-0.2,0.8-0.2h0.8h0.8h3.4H42z M39.8,58.2h-2.4c-0.2,0-0.4,0-0.5-0.1    c-0.3-0.1-0.6-0.3-0.8-0.6c-0.2-0.3-0.3-0.6-0.3-1s0.1-0.7,0.3-1c0.2-0.3,0.5-0.5,0.8-0.6c0.2-0.1,0.4-0.1,0.5-0.1h2.4    c0.9,0,1.7,0.8,1.7,1.7C41.5,57.5,40.7,58.2,39.8,58.2z M41.8,53.2h-2h-2.4h-0.7c-0.2,0-0.5-0.1-0.7-0.1c-0.6-0.3-1-0.8-1-1.5    c0-0.7,0.4-1.3,1-1.5c0.2-0.1,0.4-0.1,0.7-0.1h0.2h5c0.9,0,1.7,0.8,1.7,1.7C43.5,52.4,42.8,53.2,41.8,53.2z M41.8,39.8    c0.9,0,1.7,0.8,1.7,1.7c0,0.9-0.8,1.7-1.7,1.7h-3.4c-0.3,0-0.6-0.1-0.8-0.2v-1.3c0.5-0.3,1-0.6,1.4-1c0.2-0.2,0.4-0.5,0.7-0.8    H41.8z M39.2,36.5c0.2,0.2,0,0.9-0.3,1.6c-0.2,0.3-0.3,0.6-0.6,0.9c-0.1,0.1-0.2,0.3-0.4,0.4c-0.1,0.1-0.2,0.2-0.3,0.2    c-0.3,0.2-0.5,0.4-0.8,0.5c-0.2,0.1-0.4,0.2-0.6,0.2c-0.1,0-0.2,0.1-0.3,0.1c-0.2,0.1-0.5,0.1-0.7,0.1c-1.4,0.2-2.6-0.1-2.9-0.2    c-0.2-0.1-0.5,0-0.7,0.1c-0.2,0.1-0.3,0.4-0.4,0.6c-0.1,0.6-0.2,1.3-0.4,1.9c-0.2,0.7-0.5,1.3-0.8,1.9c-0.1,0.2-0.2,0.3-0.3,0.5    c-0.2,0.3-0.4,0.5-0.6,0.8c-1,1.3-2.2,2.1-3.1,2.6c-0.1,0.1-0.2,0.2-0.3,0.3c-0.2,0.2-0.2,0.6,0,0.8c0.1,0.3,0.4,0.4,0.7,0.4    c0.1,0,0.3,0,0.4-0.1c0.7-0.4,1.5-0.9,2.3-1.6v9.4c0,0.7,0.2,1.3,0.5,1.9h-1.2c-1,0-3.6-0.1-4.2-0.2c-1.1-0.2-2.2-0.4-3.3-0.9    c-0.6-0.2-1.2-0.5-1.7-0.7c-0.3-0.1-0.6-0.3-0.9-0.4V40.2c0.1-0.1,0.1-0.1,0.2-0.2c1.5-1.4,3-2,5.3-2.8c1.5-0.5,3-1,4.5-1.3    c0.3,0.1,0.6,0.1,0.9,0.2c0.3,0.1,0.6,0.1,0.8,0.2c0.3,0.1,0.6,0.1,0.8,0.1c1.5,0.2,3.1,0.3,4.5,0.2c0.2,0,0.3,0,0.5,0    c0.3,0,0.6,0,0.8-0.1c0.2,0,0.3,0,0.4,0c0.1,0,0.3,0,0.4,0C38.4,36.4,39.1,36.3,39.2,36.5z M36,34.9c-0.2,0-0.4,0-0.6,0    c-1.5,0.1-3,0-4.5-0.2v-1.4c0.8,0.1,1.7,0.2,2.5,0.2c0.9,0,1.7-0.1,2.5-0.2V34.9z M42.7,27.1c-2.5,2.5-5.7,3.8-9.2,3.8    c-3.5,0-6.7-1.4-9.2-3.8c-5.1-5.1-5.1-13.3,0-18.4C26.7,6.3,30,5,33.5,5c3.5,0,6.7,1.4,9.2,3.8C47.7,13.8,47.7,22.1,42.7,27.1z"></path>
		<ellipse transform="matrix(0.2677 -0.9635 0.9635 0.2677 -43.7515 54.291)" class="st1" cx="13.8" cy="55.9" rx="1.5" ry="1.5"></ellipse>
		<path class="st1" d="M17.3,31.5c0.2,0,0.4-0.1,0.5-0.2c0.4-0.3,0.4-0.8,0.1-1.2c-2.7-3.5-4.2-7.7-4.2-12.1c0-4.1,1.2-8,3.6-11.3    c0.3-0.4,0.2-0.9-0.2-1.2c-0.4-0.3-0.9-0.2-1.2,0.2c-2.5,3.6-3.9,7.9-3.9,12.3c0,4.9,1.6,9.4,4.6,13.2    C16.8,31.3,17.1,31.5,17.3,31.5z"></path>
		<path class="st1" d="M50.8,5.5c-0.3-0.4-0.8-0.5-1.2-0.2c-0.4,0.3-0.5,0.8-0.2,1.2c2.4,3.3,3.7,7.3,3.7,11.5c0,4.3-1.4,8.5-4,11.9    c-0.3,0.4-0.2,0.9,0.2,1.2c0.2,0.1,0.3,0.2,0.5,0.2c0.3,0,0.5-0.1,0.7-0.3c2.8-3.7,4.3-8.2,4.3-12.9C54.8,13.4,53.5,9.1,50.8,5.5z    "></path>
	</g>
</g>
<path class="st2" d="M39.7,15.8c0-3.9-2.9-6.6-6.6-6.6s-6.6,2.6-6.6,6.6c0,4.1,6.6,11.5,6.6,11.5S39.7,19.9,39.7,15.8z M30.7,15.9  c0-1.4,1.1-2.5,2.5-2.5c1.4,0,2.5,1.1,2.5,2.5s-1.1,2.5-2.5,2.5C31.8,18.4,30.7,17.3,30.7,15.9z"></path>
</svg>