<?xml version="1.0" encoding="UTF-8" standalone="no"?>
<!-- Created with Inkscape (http://www.inkscape.org/) -->

<svg
   xmlns:dc="http://purl.org/dc/elements/1.1/"
   xmlns:cc="http://creativecommons.org/ns#"
   xmlns:rdf="http://www.w3.org/1999/02/22-rdf-syntax-ns#"
   xmlns:svg="http://www.w3.org/2000/svg"
   xmlns="http://www.w3.org/2000/svg"
   version="1.1"
   width="900"
   height="161"
   id="svg2">
  <defs
     id="defs4" />
  <metadata
     id="metadata7">
    <rdf:RDF>
      <cc:Work
         rdf:about="">
        <dc:format>image/svg+xml</dc:format>
        <dc:type
           rdf:resource="http://purl.org/dc/dcmitype/StillImage" />
        <dc:title></dc:title>
      </cc:Work>
    </rdf:RDF>
  </metadata>
  <g
     transform="translate(129.47008,-1148.7329)"
     id="layer1">
    <g
       transform="matrix(0.17893165,0,0,0.17893165,-129.37356,1149.0013)"
       id="Page 1"
       style="fill:#d8d8d8;fill-rule:evenodd">
      <g
         id="BackBone.JS">
        <path
           d="M 0,0 0,485 361,690.78502 361,550.90277 119.49609,413.23549 119.49609,197 361,334.66728 361,205.78502 0,0 z m 0,0"
           id="Path"
           style="fill:#002a41;stroke:#848484;stroke-width:1" />
        <path
           d="M 722,0 722,485 361,690.78502 361,550.90277 602.50391,413.23549 602.50391,197 361,334.66728 361,205.78502 722,0 z m 0,0"
           id="path2996"
           style="fill:#0071b5;stroke:#848484;stroke-width:1" />
        <path
           d="m 0,896.78502 0,-485 L 361,206 l 0,139.88225 -241.50391,137.66728 0,205.23549 L 361,551.11775 361,691 0,896.78502 z m 0,0"
           id="path2998"
           style="fill:#0071b5;stroke:#848484;stroke-width:1" />
        <path
           d="m 722,896.78502 0,-485 L 361,206 l 0,139.88225 241.50391,137.66728 0,205.23549 L 361,551.11775 361,691 722,896.78502 z m 0,0"
           id="path3000"
           style="fill:#002a41;stroke:#848484;stroke-width:1" />
      </g>
    </g>
    <g
       id="text3023"
       style="font-size:120.09580231px;font-style:normal;font-variant:normal;font-weight:normal;font-stretch:normal;line-height:125%;letter-spacing:0px;word-spacing:0px;fill:#002a41;fill-opacity:1;stroke:none;font-family:Open Sans Light;-inkscape-font-specification:Open Sans Light">
      <path
         d="m 53.055974,1187.523 23.514852,0 c 10.594343,1e-4 18.373979,1.7984 23.338931,5.395 4.964833,3.5967 7.447283,9.0307 7.447343,16.302 -6e-5,4.965 -1.51494,9.0991 -4.54464,12.4025 -3.029817,3.3035 -7.457172,5.4243 -13.282077,6.3625 l 0,0.3518 c 6.84134,1.0165 11.874647,3.1765 15.099937,6.4798 3.22516,3.3035 4.83777,7.9068 4.83784,13.8099 -7e-5,7.8969 -2.61934,13.976 -7.85783,18.2372 -5.238607,4.2612 -12.6664,6.3918 -22.283399,6.3918 l -26.270957,0 z m 5.981334,38.175 18.882251,0 c 8.053254,10e-5 13.907527,-1.3389 17.562838,-4.0169 3.655201,-2.6778 5.482833,-6.8706 5.482893,-12.5783 -6e-5,-5.7077 -2.062254,-9.8516 -6.186579,-12.4318 -4.124434,-2.5801 -10.27191,-3.8702 -18.442447,-3.8703 l -17.298956,0 z m 0,5.2777 0,37.0021 20.172342,0 c 15.871982,1e-4 23.80799,-6.4504 23.80805,-19.3513 -6e-5,-11.7672 -8.366098,-17.6508 -25.098141,-17.6508 z"
         id="path3014" />
      <path
         d="m 169.63335,1242.997 -34.83248,0 -11.96266,30.2585 -6.62638,0 34.48063,-86.0843 3.81163,0 33.77695,86.0843 -6.74366,0 z m -32.66278,-5.3949 30.669,0 -11.66947,-30.9036 c -0.97738,-2.4237 -2.15019,-5.7858 -3.51843,-10.0862 -1.05556,3.7531 -2.20882,7.1542 -3.45979,10.2035 z"
         id="path3016" />
      <path
         d="m 236.95267,1191.6865 c -10.7508,10e-5 -19.21457,3.4403 -25.39135,10.3208 -6.17682,6.8805 -9.26521,16.3021 -9.2652,28.2647 -1e-5,12.2363 2.91246,21.7361 8.73744,28.4993 5.82493,6.7632 14.15188,10.1448 24.98086,10.1448 7.19319,0 13.80001,-0.9187 19.8205,-2.7561 l 0,5.2776 c -5.66864,1.9938 -12.74459,2.9907 -21.22787,2.9907 -12.04089,0 -21.5211,-3.8898 -28.44066,-11.6695 -6.91959,-7.7796 -10.37938,-18.6476 -10.37937,-32.6041 -1e-5,-8.7178 1.6517,-16.3997 4.95513,-23.0457 3.3034,-6.6459 8.05327,-11.7769 14.24964,-15.3932 6.19632,-3.616 13.39932,-5.4241 21.60904,-5.4242 8.36599,10e-5 15.85242,1.5638 22.45932,4.6912 l -2.40426,5.395 c -6.25505,-3.1275 -12.82278,-4.6912 -19.70322,-4.6913 z"
         id="path3018" />
      <path
         d="m 332.59537,1273.2555 -7.33007,0 -32.89734,-45.2705 -11.4349,10.0862 0,35.1843 -5.98133,0 0,-85.7325 5.98133,0 0,44.5668 9.49977,-9.4997 33.60102,-35.0671 7.62327,0 -35.12568,36.2399 z"
         id="path3020" />
      <path
         d="m 344.85126,1187.523 23.51485,0 c 10.59435,1e-4 18.37398,1.7984 23.33893,5.395 4.96484,3.5967 7.44729,9.0307 7.44735,16.302 -6e-5,4.965 -1.51494,9.0991 -4.54464,12.4025 -3.02982,3.3035 -7.45717,5.4243 -13.28208,6.3625 l 0,0.3518 c 6.84134,1.0165 11.87465,3.1765 15.09994,6.4798 3.22516,3.3035 4.83777,7.9068 4.83784,13.8099 -7e-5,7.8969 -2.61934,13.976 -7.85783,18.2372 -5.23861,4.2612 -12.6664,6.3918 -22.2834,6.3918 l -26.27096,0 z m 5.98134,38.175 18.88225,0 c 8.05325,10e-5 13.90752,-1.3389 17.56283,-4.0169 3.65521,-2.6778 5.48283,-6.8706 5.48289,-12.5783 -6e-5,-5.7077 -2.06225,-9.8516 -6.18657,-12.4318 -4.12443,-2.5801 -10.27191,-3.8702 -18.44245,-3.8703 l -17.29895,0 z m 0,5.2777 0,37.0021 20.17234,0 c 15.87198,1e-4 23.80799,-6.4504 23.80805,-19.3513 -6e-5,-11.7672 -8.3661,-17.6508 -25.09814,-17.6508 z"
         id="path3022" />
      <path
         d="m 492.21491,1230.272 c -9e-5,13.6046 -3.40124,24.3651 -10.20346,32.2816 -6.80236,7.9165 -16.18484,11.8747 -28.14745,11.8747 -11.92361,0 -21.28654,-3.9582 -28.08881,-11.8747 -6.80232,-7.9165 -10.20346,-18.7161 -10.20346,-32.3989 0,-13.6436 3.43046,-24.3846 10.29142,-32.223 6.86091,-7.8382 16.23362,-11.7573 28.11813,-11.7574 11.96261,1e-4 21.32554,3.9388 28.08881,11.8161 6.76313,7.8774 10.14473,18.6379 10.14482,32.2816 z m -70.13408,0 c -10e-6,12.2754 2.73654,21.7654 8.20968,28.47 5.47309,6.7045 13.33091,10.0568 23.57349,10.0568 10.32068,0 18.20782,-3.3229 23.66145,-9.9689 5.4535,-6.6459 8.18028,-16.1652 8.18036,-28.5579 -8e-5,-12.3536 -2.72686,-21.824 -8.18036,-28.4114 -5.45363,-6.5872 -13.30168,-9.8808 -23.54417,-9.8809 -10.20349,10e-5 -18.07108,3.3231 -23.60281,9.9689 -5.53177,6.646 -8.29765,16.0871 -8.29764,28.3234 z"
         id="path3024" />
      <path
         d="m 574.19435,1273.2555 -6.03997,0 -50.7827,-76.1154 -0.46912,0 c 0.4691,9.0698 0.70367,15.9112 0.70368,20.5242 l 0,55.5912 -5.74677,0 0,-85.7325 5.98134,0 50.72405,75.9982 0.35185,0 c -0.35192,-7.0369 -0.52784,-13.7219 -0.52777,-20.0551 l 0,-55.9431 5.80541,0 z"
         id="path3026" />
      <path
         d="m 645.26669,1273.2555 -46.85378,0 0,-85.7325 46.85378,0 0,5.5123 -40.87245,0 0,32.4282 38.58547,0 0,5.5122 -38.58547,0 0,36.7676 40.87245,0 z"
         id="path3028" />
    </g>
  </g>
</svg>
